<?xml version="1.0" encoding="UTF-8"?>
<svg id="Layer_1" data-name="Layer 1" xmlns="http://www.w3.org/2000/svg" viewBox="0 0 3402.78 1165.63">
  <defs>
    <style>
      .cls-1 {
        fill: none;
        stroke: #000;
        stroke-miterlimit: 10;
      }

      .cls-2 {
        letter-spacing: -.04em;
      }

      .cls-3 {
        fill: #fff;
      }

      .cls-4 {
        letter-spacing: 0em;
      }

      .cls-5, .cls-6 {
        fill: #ff7221;
      }

      .cls-7 {
        fill: #b5d4ef;
      }

      .cls-8 {
        letter-spacing: 0em;
      }

      .cls-6 {
        font-family: Montserrat-Regular, Montserrat;
        font-size: 174.45px;
        font-variation-settings: 'wght' 400;
      }

      .cls-9 {
        letter-spacing: -.06em;
      }
    </style>
  </defs>
  <rect class="cls-7" x="65.24" y="123.46" width="975.03" height="975.03" rx="157.71" ry="157.71"/>
  <path class="cls-3" d="M245.19,610.97c0,.28,0,.56,0,.84h-119.26l-.59-64.96h127.22c-4.82,20.66-7.37,42.11-7.37,64.12Z"/>
  <path class="cls-3" d="M777.67,546.86c-28.93-82.73-112.34-142.53-210.73-142.53s-181.8,59.79-210.73,142.53c-7.06,20.18-10.87,41.74-10.87,64.12,0,.28,0,.56,0,.84.05,14.14,1.64,27.93,4.6,41.25h414.29c-5.41,22.15-14.99,42.81-27.94,61.22h-361.31c38.31,61.76,109.93,103.33,191.95,103.33s153.64-41.56,191.96-103.33h.34c20.85-34.45,58.68-57.48,101.9-57.48,2.12,0,4.23.06,6.32.17-3.47,19.88-9.15,39.05-16.81,57.31-4.77,11.39-10.31,22.41-16.55,33.03-3.46,5.89-7.14,11.66-11.05,17.28h0s0,.02,0,.03c-18.01,26.04-40.45,49.16-66.35,68.41-52.04,38.73-118,61.87-189.76,61.87-129.07,0-239.39-74.89-283.7-180.62H126.87l-.56-61.22h139.46c-2.15-13.47-3.29-27.24-3.32-41.25,0-.28,0-.56,0-.84,0-22.05,2.7-43.52,7.8-64.12,31.17-125.93,152.17-219.82,296.69-219.82s265.53,93.89,296.7,219.82c5.1,20.6,7.79,42.06,7.79,64.12,0,.28,0,.56,0,.84h-506.83c0-.28,0-.56,0-.84,0-22.51,4.23-44.11,11.98-64.12h401.1Z"/>
  <path class="cls-5" d="M980.18,775.86c0,65.75-53.3,119.05-119.05,119.05-39.1,0-73.8-18.85-95.49-47.95,21.57-15.8,40.91-34.13,57.52-54.5,5.82,16.75,21.75,28.76,40.48,28.76,23.67,0,42.86-19.18,42.86-42.86s-19.18-42.86-42.86-42.86c-1.34,0-2.68.06-3.99.19,3.44-7,6.59-14.14,9.45-21.41,6.96-17.67,12.17-36.11,15.47-55.16,33.24,6.63,61.49,27.11,78.47,55.16,10.89,17.97,17.15,39.03,17.15,61.57Z"/>
  <line class="cls-1" x1="214.68" y1="639.44" x2="214.66" y2="639.44"/>
  <line class="cls-1" x1="152.32" y1="639.44" x2="145.42" y2="639.44"/>
  <path class="cls-7" d="M3151.35,730.96c-72.63,0-116.78-38.36-117.62-96.1h88.35c0,19.49,13.57,28.46,30.97,28.46,13.43,0,26.16-6.85,26.16-20.62,0-15.37-20.17-19.75-45.78-23.99-41.32-6.7-96.1-19.17-96.1-83.8,0-53.42,45.52-87.9,113.8-87.9s111.84,36.1,112.89,90.1h-85.96c0-17.02-11.44-24.93-28.07-24.93-14.72,0-24.6,7.28-24.6,19.64,0,15.17,20.38,18.69,45.7,23.21,42.1,7.48,98.07,16.23,98.07,83.81,0,55.69-47,92.14-117.83,92.14h.02Z"/>
  <path class="cls-7" d="M1365.06,610.68h98.18c0,24.68,19.04,36.69,40.74,36.69,19.93,0,38.97-10.61,38.97-29.48,0-21.67-26.89-27.95-59.77-35.92-49.93-12.41-113.67-27.71-113.67-106.36,0-68.03,49.98-107,131.44-107s130.32,42.52,130.32,112.8h-95.44c0-21.85-16.29-32.09-36.01-32.09-16.96,0-33.24,7.34-33.24,23.47,0,19.62,26.04,26.11,58.57,34.29,50.85,13.12,117.33,30.1,117.33,108.99s-57.98,114.61-138.2,114.61c-84.55,0-139.2-44.7-139.2-120Z"/>
  <path class="cls-7" d="M1962.35,586.47c0,8.03-.7,16.06-1.9,24.3h-197.88c6.01,30.57,25.42,46.38,54.4,46.38,21.44,0,39.36-9.39,48.18-24.99h91.34c-18.75,60.82-72.66,98.82-139.52,98.82-83.15,0-144.75-60.78-144.75-142.19s61.11-141.77,144.75-141.77,145.38,61.28,145.38,139.45h0ZM1764.2,559.93h107.73c-8.05-26.63-27.25-41.01-54.95-41.01s-45.35,14.53-52.78,41.01Z"/>
  <path class="cls-7" d="M2179.87,641.83v80.4h-63.15c-58.94,0-94.75-36.03-94.75-95.25v-100.56h-48.78v-21.46l119.4-127.15h18.86v77.91h66.95v70.69h-64.63v84.81c0,19.08,11.52,30.6,30.88,30.6h35.23Z"/>
  <path class="cls-7" d="M2486.15,561.75v160.48h-91.79v-149.81c0-30.74-10.8-46.4-34.75-46.4-27.77,0-45.09,19.71-45.09,53.91v142.31h-91.79v-362.73h91.79v113.77c19.62-15.8,44.58-25.42,71.14-25.42,61.18,0,100.5,44.82,100.5,113.9Z"/>
  <path class="cls-7" d="M2541.03,455.73v266.49h91.79v-266.49h-91.79Z"/>
  <path class="cls-7" d="M2675.04,588.98c0-82.61,62.53-141.98,149.41-141.98s149.41,59.37,149.41,141.98-62.81,141.98-149.41,141.98-149.41-59.65-149.41-141.98ZM2824.45,648.51c33.47,0,57.47-24.29,57.47-59.52s-24-59.52-57.47-59.52-57.47,24.29-57.47,59.52,24,59.52,57.47,59.52h0Z"/>
  <text class="cls-6" transform="translate(1379.65 908)"><tspan x="0" y="0">Be</tspan><tspan class="cls-4" x="236.9" y="0">c</tspan><tspan x="333.54" y="0">ome </tspan><tspan class="cls-9" x="779.08" y="0">Y</tspan><tspan x="879.39" y="0">our Ident</tspan><tspan class="cls-8" x="1686.73" y="0">i</tspan><tspan class="cls-2" x="1732.08" y="0">t</tspan><tspan x="1796.63" y="0">y</tspan></text>
</svg>