<?xml version="1.0" encoding="UTF-8"?>
<svg id="Layer_1" data-name="Layer 1" xmlns="http://www.w3.org/2000/svg" viewBox="0 0 1133.86 1165.63">
  <defs>
    <style>
      .cls-1 {
        fill: none;
        stroke: #000;
        stroke-miterlimit: 10;
      }

      .cls-2 {
        fill: #fff;
      }

      .cls-3 {
        fill: #ff7221;
      }

      .cls-4 {
        fill: #b5d4ef;
      }
    </style>
  </defs>
  <rect class="cls-4" x="51.26" y="67.14" width="1031.35" height="1031.35" rx="157.71" ry="157.71"/>
  <path class="cls-2" d="M241.59,582.82c0,.3,0,.59,0,.89h-126.15l-.63-68.71h134.56c-5.1,21.85-7.79,44.55-7.79,67.82Z"/>
  <path class="cls-2" d="M804.83,514.99c-30.6-87.51-118.83-150.76-222.91-150.76s-192.3,63.25-222.9,150.76c-7.47,21.35-11.5,44.15-11.5,67.82,0,.3,0,.59,0,.89.05,14.95,1.73,29.54,4.86,43.64h438.22c-5.72,23.42-15.86,45.28-29.56,64.76h-382.17c40.52,65.33,116.28,109.29,203.04,109.29s162.52-43.96,203.05-109.29h.36c22.06-36.44,62.07-60.79,107.79-60.79,2.24,0,4.47.06,6.68.18-3.67,21.02-9.68,41.31-17.78,60.62-5.05,12.05-10.9,23.71-17.51,34.93-3.66,6.23-7.56,12.33-11.69,18.28h0s0,.02,0,.03c-19.05,27.55-42.79,52-70.18,72.37-55.05,40.96-124.82,65.45-200.72,65.45-136.52,0-253.21-79.22-300.09-191.05H116.44l-.59-64.76h147.51c-2.28-14.25-3.48-28.81-3.51-43.64,0-.3,0-.59,0-.89,0-23.33,2.85-46.03,8.25-67.82,32.97-133.2,160.96-232.52,313.82-232.52s280.87,99.31,313.84,232.52c5.39,21.79,8.24,44.49,8.24,67.82,0,.3,0,.59,0,.89H367.89c0-.3,0-.59,0-.89,0-23.81,4.47-46.66,12.67-67.82h424.27Z"/>
  <path class="cls-3" d="M1019.04,757.23c0,69.55-56.38,125.92-125.92,125.92-41.36,0-78.06-19.94-101.01-50.72,22.82-16.72,43.27-36.1,60.84-57.64,6.16,17.71,23,30.42,42.82,30.42,25.04,0,45.33-20.29,45.33-45.33s-20.29-45.33-45.33-45.33c-1.42,0-2.83.06-4.22.2,3.64-7.41,6.97-14.95,9.99-22.65,7.36-18.69,12.88-38.2,16.36-58.35,35.16,7.02,65.04,28.68,83,58.35,11.52,19,18.14,41.29,18.14,65.13Z"/>
  <line class="cls-1" x1="209.32" y1="612.92" x2="209.3" y2="612.92"/>
  <line class="cls-1" x1="143.36" y1="612.92" x2="136.06" y2="612.92"/>
</svg>