<?xml version="1.0" encoding="UTF-8"?>
<svg id="Layer_1" data-name="Layer 1" xmlns="http://www.w3.org/2000/svg" viewBox="0 0 1133.86 1165.63">
  <defs>
    <style>
      .cls-1 {
        fill: none;
        stroke: #000;
        stroke-miterlimit: 10;
      }

      .cls-2 {
        fill: #fff;
      }

      .cls-3 {
        letter-spacing: 0em;
      }

      .cls-4 {
        letter-spacing: 0em;
      }

      .cls-5 {
        font-family: Montserrat-Regular, Montserrat;
        font-size: 92.1px;
        font-variation-settings: 'wght' 400;
      }

      .cls-5, .cls-6 {
        fill: gray;
      }

      .cls-7 {
        letter-spacing: -.04em;
      }

      .cls-8 {
        letter-spacing: -.06em;
      }
    </style>
  </defs>
  <rect x="254.57" y="41.46" width="650.64" height="650.64" rx="157.71" ry="157.71"/>
  <path class="cls-2" d="M374.65,366.78c0,.19,0,.37,0,.56h-79.59l-.4-43.35h84.89c-3.22,13.79-4.92,28.1-4.92,42.79Z"/>
  <path class="cls-2" d="M729.97,324c-19.3-55.21-74.96-95.11-140.62-95.11s-121.31,39.9-140.62,95.11c-4.71,13.47-7.26,27.85-7.26,42.79,0,.19,0,.37,0,.56.03,9.43,1.09,18.64,3.07,27.53h276.46c-3.61,14.78-10.01,28.56-18.65,40.85h-241.1c25.56,41.22,73.35,68.95,128.09,68.95s102.53-27.73,128.09-68.95h.23c13.91-22.99,39.16-38.35,68-38.35,1.41,0,2.82.04,4.22.11-2.32,13.26-6.11,26.06-11.21,38.24-3.18,7.6-6.88,14.96-11.05,22.04-2.31,3.93-4.77,7.78-7.37,11.53h0s0,.01,0,.02c-12.02,17.38-26.99,32.81-44.27,45.65-34.73,25.84-78.74,41.29-126.62,41.29-86.13,0-159.74-49.97-189.32-120.53h-104.34l-.37-40.85h93.06c-1.44-8.99-2.19-18.17-2.22-27.53,0-.19,0-.37,0-.56,0-14.72,1.8-29.04,5.21-42.79,20.8-84.03,101.55-146.69,197.98-146.69s177.19,62.65,197.99,146.69c3.4,13.75,5.2,28.07,5.2,42.79,0,.19,0,.37,0,.56h-338.21c0-.19,0-.37,0-.56,0-15.02,2.82-29.43,8-42.79h267.65Z"/>
  <path class="cls-6" d="M865.11,476.81c0,43.88-35.57,79.44-79.44,79.44-26.09,0-49.24-12.58-63.72-32,14.39-10.55,27.3-22.77,38.38-36.37,3.89,11.18,14.51,19.19,27.01,19.19,15.8,0,28.6-12.8,28.6-28.6s-12.8-28.6-28.6-28.6c-.9,0-1.79.04-2.66.13,2.29-4.67,4.4-9.43,6.3-14.29,4.64-11.79,8.12-24.1,10.32-36.81,22.18,4.43,41.03,18.09,52.36,36.81,7.27,11.99,11.44,26.05,11.44,41.09Z"/>
  <line class="cls-1" x1="354.29" y1="385.78" x2="354.27" y2="385.78"/>
  <line class="cls-1" x1="312.68" y1="385.78" x2="308.07" y2="385.78"/>
  <path d="M1000.61,1005.02c-38.35,0-61.65-20.25-62.09-50.74h46.64c0,10.29,7.16,15.03,16.35,15.03,7.09,0,13.81-3.62,13.81-10.89,0-8.12-10.65-10.43-24.17-12.66-21.82-3.54-50.74-10.12-50.74-44.24,0-28.2,24.03-46.41,60.08-46.41s59.05,19.06,59.6,47.57h-45.38c0-8.98-6.04-13.16-14.82-13.16-7.77,0-12.99,3.85-12.99,10.37,0,8.01,10.76,9.87,24.13,12.25,22.22,3.95,51.77,8.57,51.77,44.24,0,29.4-24.81,48.64-62.21,48.64h0Z"/>
  <path d="M57.56,941.52h51.83c0,13.03,10.05,19.37,21.51,19.37,10.52,0,20.58-5.6,20.58-15.56,0-11.44-14.2-14.76-31.56-18.96-26.36-6.55-60.01-14.63-60.01-56.15,0-35.92,26.39-56.49,69.39-56.49s68.8,22.45,68.8,59.55h-50.39c0-11.53-8.6-16.94-19.01-16.94-8.95,0-17.55,3.88-17.55,12.39,0,10.36,13.75,13.79,30.92,18.1,26.84,6.93,61.94,15.89,61.94,57.54s-30.61,60.51-72.96,60.51c-44.64,0-73.49-23.6-73.49-63.35Z"/>
  <path d="M372.9,928.74c0,4.24-.37,8.48-1,12.83h-104.47c3.17,16.14,13.42,24.48,28.72,24.48,11.32,0,20.78-4.96,25.44-13.19h48.22c-9.9,32.11-38.36,52.17-73.66,52.17-43.9,0-76.42-32.09-76.42-75.07s32.26-74.85,76.42-74.85,76.75,32.35,76.75,73.62h0ZM268.28,914.73h56.88c-4.25-14.06-14.39-21.65-29.01-21.65s-23.94,7.67-27.86,21.65Z"/>
  <path d="M487.73,957.97v42.44h-33.34c-31.11,0-50.02-19.02-50.02-50.28v-53.09h-25.75v-11.33l63.03-67.13h9.96v41.13h35.34v37.32h-34.12v44.77c0,10.08,6.08,16.15,16.3,16.15h18.6Z"/>
  <path d="M649.43,915.69v84.72h-48.46v-79.09c0-16.23-5.7-24.5-18.35-24.5-14.66,0-23.81,10.41-23.81,28.46v75.13h-48.46v-191.5h48.46v60.06c10.36-8.34,23.53-13.42,37.56-13.42,32.3,0,53.06,23.66,53.06,60.13Z"/>
  <path d="M678.4,859.72v140.69h48.46v-140.69h-48.46Z"/>
  <path d="M749.15,930.07c0-43.61,33.01-74.95,78.88-74.95s78.88,31.34,78.88,74.95-33.16,74.96-78.88,74.96-78.88-31.49-78.88-74.96ZM828.03,961.49c17.67,0,30.34-12.82,30.34-31.42s-12.67-31.42-30.34-31.42-30.34,12.82-30.34,31.42,12.67,31.42,30.34,31.42h0Z"/>
  <text class="cls-5" transform="translate(65.27 1098.49)"><tspan x="0" y="0">Be</tspan><tspan class="cls-4" x="125.07" y="0">c</tspan><tspan x="176.09" y="0">ome </tspan><tspan class="cls-8" x="411.31" y="0">Y</tspan><tspan x="464.26" y="0">our Ident</tspan><tspan class="cls-3" x="890.48" y="0">i</tspan><tspan class="cls-7" x="914.43" y="0">t</tspan><tspan x="948.51" y="0">y</tspan></text>
</svg>